<svg xmlns="http://www.w3.org/2000/svg" viewBox="0 0 900 520" role="img" aria-label="裝甲牛電動拖板車示意圖">
  <defs>
    <linearGradient id="g1" x1="0" y1="0" x2="1" y2="1"><stop offset="0" stop-color="#ffd54a"/><stop offset="1" stop-color="#d89b00"/></linearGradient>
    <linearGradient id="g2" x1="0" y1="0" x2="1" y2="1"><stop offset="0" stop-color="#1f2937"/><stop offset="1" stop-color="#05070b"/></linearGradient>
    <filter id="shadow" x="-20%" y="-20%" width="140%" height="140%"><feDropShadow dx="0" dy="24" stdDeviation="28" flood-color="#000" flood-opacity=".45"/></filter>
  </defs>
  <rect x="12" y="26" width="876" height="468" rx="48" fill="#0d1118" opacity=".25"/>
  <g filter="url(#shadow)">
    <path d="M158 307h480c35 0 67 18 84 48l18 31H121l20-47c6-19 4-32 17-32Z" fill="url(#g2)"/>
    <path d="M227 197h254c37 0 70 23 82 58l39 116H184l42-174Z" fill="url(#g1)"/>
    <path d="M272 228h170c24 0 44 15 52 38l17 51H247l25-89Z" fill="#111827" opacity=".92"/>
    <path d="M605 323h170c20 0 36 16 36 36v27H596l9-63Z" fill="#ffc928"/>
    <path d="M665 205c-25-55-12-104 38-150" stroke="#202734" stroke-width="26" stroke-linecap="round" fill="none"/>
    <path d="M707 53c27 15 43 39 51 72" stroke="#ffc928" stroke-width="24" stroke-linecap="round" fill="none"/>
    <rect x="106" y="372" width="646" height="34" rx="17" fill="#cfd6df"/>
    <rect x="698" y="365" width="140" height="40" rx="20" fill="#e7edf5"/>
    <circle cx="234" cy="409" r="56" fill="#0a0d13"/><circle cx="234" cy="409" r="28" fill="#374151"/><circle cx="586" cy="409" r="56" fill="#0a0d13"/><circle cx="586" cy="409" r="28" fill="#374151"/>
    <path d="M126 247h95l-31 124H97c-20 0-34-19-29-38l19-67c5-11 20-19 39-19Z" fill="#efb600"/>
    <path d="M104 424h722" stroke="#f8fafc" stroke-width="4" opacity=".35" stroke-linecap="round"/>
  </g>
</svg>
